# xmcd
#
# Track frame offsets: 
#        150
#        15170
#        33323
#        45929
#        61495
#        74011
#        89214
#        100641
#        114013
#        128426
#        139726
#        154475
#        172634
#        186210
#        199410
#        215416
#        240783
#        252916
#
# Disc length: 3559 seconds
#
# Revision: 12
# Processed by: cddbd v1.5.2PL0 Copyright (c) Steve Scherf et al.
# Submitted via: ExactAudioCopy v1.0b3
#
DISCID=e80de512
DTITLE=The Legendary Blues Singers - Play Me The Blues...
DYEAR=2001
DGENRE=Blues
TTITLE0=Louis Armstrong - St. James Infirmary
TTITLE1=Nina Simone - Mood Indigo
TTITLE2=Lena Horne - Sometimes I Feel Like A Motherless Child
TTITLE3=Dinah Washington - Willow Weep For Me
TTITLE4=Sarah Vaughan - My Favorite Things
TTITLE5=Billie Holiday - Loverman
TTITLE6=Ella Fitzgerald - It's Only A Paper Moon
TTITLE7=Nat King Cole - After You've Gone
TTITLE8=The Inkspots - Into Each Life Some Rain Must Fall
TTITLE9=The Mills Brothers - Moon Glow
TTITLE10=Sarah Vaughan - Black Coffee
TTITLE11=Louis Armstrong - Back Ole Town Blues
TTITLE12=Billie Holiday - The Mood That I'm In
TTITLE13=Nat King Cole - Sweet Lorraine
TTITLE14=Stéphane Grappelli - Makin' Whoopie
TTITLE15=Nina Simone - After You've Gone
TTITLE16=Peggy Lee - I've Got A Right To Sing The Blues
TTITLE17=Louis Armstrong - Black And Blue
EXTD=
EXTT0=
EXTT1=
EXTT2=
EXTT3=
EXTT4=
EXTT5=
EXTT6=
EXTT7=
EXTT8=
EXTT9=
EXTT10=
EXTT11=
EXTT12=
EXTT13=
EXTT14=
EXTT15=live recording
EXTT16=re-recording
EXTT17=live recording
PLAYORDER=
